<svg width="44" height="45" viewBox="0 0 44 45" fill="none" xmlns="http://www.w3.org/2000/svg">
<rect y="0.5" width="44" height="44" rx="22" fill="#F3FDFF"/>
<path d="M20.5659 14.5137L20.0343 11.6736M20.5659 14.5137C22.2417 14.2668 23.9479 14.6813 25.3238 15.6694C26.6996 16.6576 27.6374 18.142 27.9387 19.809L28.3432 21.9708C28.8809 24.8366 31.2554 25.1336 31.5206 26.5671C31.6551 27.2832 31.7895 27.9981 31.1418 28.1204L15.6213 31.0252C14.9748 31.1462 14.8404 30.4289 14.706 29.7127C14.4384 28.2804 16.5464 27.1439 16.0112 24.2781C15.7435 22.8495 16.2776 25.6982 15.6079 22.1163C15.2862 20.4532 15.6238 18.7302 16.5492 17.3115C17.4746 15.8928 18.9154 14.8895 20.5671 14.5137H20.5659ZM11.9551 19.9031C12.1298 17.6092 12.9596 15.6734 14.5043 13.9686M17.738 30.6293C18.0568 31.5375 18.6749 32.3104 19.4909 32.821C20.3068 33.3316 21.2722 33.5496 22.2284 33.4392C23.1846 33.3287 24.0749 32.8964 24.753 32.2133C25.4311 31.5301 25.8568 30.6367 25.9602 29.6797L26.0701 29.0687L17.738 30.6293Z" stroke="#206374" stroke-width="2" stroke-linecap="round" stroke-linejoin="round"/>
</svg>
