<svg width="45" height="45" viewBox="0 0 45 45" fill="none" xmlns="http://www.w3.org/2000/svg">
<rect x="0.333984" y="0.5" width="44" height="44" rx="22" fill="#F3FDFF"/>
<path fill-rule="evenodd" clip-rule="evenodd" d="M26.9158 15.1675C26.9158 12.6365 24.864 10.5847 22.333 10.5847C19.802 10.5847 17.7502 12.6365 17.7502 15.1675C17.7502 17.6985 19.802 19.7503 22.333 19.7503C24.864 19.7503 26.9158 17.6985 26.9158 15.1675ZM22.333 12.4178C23.8516 12.4178 25.0827 13.6489 25.0827 15.1675C25.0827 16.6861 23.8516 17.9172 22.333 17.9172C20.8144 17.9172 19.5833 16.6861 19.5833 15.1675C19.5833 13.6489 20.8144 12.4178 22.333 12.4178Z" fill="#206374"/>
<path fill-rule="evenodd" clip-rule="evenodd" d="M18.9723 29.8325C18.9723 27.3015 16.9205 25.2497 14.3895 25.2497C11.8584 25.2497 9.80664 27.3015 9.80664 29.8325C9.80664 32.3635 11.8584 34.4153 14.3895 34.4153C16.9205 34.4153 18.9723 32.3635 18.9723 29.8325ZM14.3895 27.0828C15.9081 27.0828 17.1391 28.3139 17.1391 29.8325C17.1391 31.3511 15.9081 32.5822 14.3895 32.5822C12.8708 32.5822 11.6398 31.3511 11.6398 29.8325C11.6398 28.3139 12.8708 27.0828 14.3895 27.0828Z" fill="#206374"/>
<path fill-rule="evenodd" clip-rule="evenodd" d="M30.2765 25.2497C32.8076 25.2497 34.8593 27.3015 34.8593 29.8325C34.8593 32.3635 32.8076 34.4153 30.2765 34.4153C27.7455 34.4153 25.6937 32.3635 25.6937 29.8325C25.6937 27.3015 27.7455 25.2497 30.2765 25.2497ZM33.0262 29.8325C33.0262 28.3139 31.7951 27.0828 30.2765 27.0828C28.7579 27.0828 27.5268 28.3139 27.5268 29.8325C27.5268 31.3511 28.7579 32.5822 30.2765 32.5822C31.7951 32.5822 33.0262 31.3511 33.0262 29.8325Z" fill="#206374"/>
<path d="M16.4727 17.0768C16.8522 16.7418 16.8883 16.1626 16.5534 15.7831C16.2184 15.4035 15.6392 15.3674 15.2597 15.7024C13.0412 17.6604 11.6398 20.5282 11.6398 23.7221C11.6398 24.2283 12.0501 24.6387 12.5563 24.6387C13.0625 24.6387 13.4729 24.2283 13.4729 23.7221C13.4729 21.076 14.6318 18.7016 16.4727 17.0768Z" fill="#206374"/>
<path d="M29.4063 15.7024C29.0268 15.3674 28.4476 15.4035 28.1126 15.7831C27.7776 16.1626 27.8138 16.7418 28.1933 17.0768C30.0342 18.7016 31.1931 21.076 31.1931 23.7221C31.1931 24.2283 31.6035 24.6387 32.1097 24.6387C32.6159 24.6387 33.0262 24.2283 33.0262 23.7221C33.0262 20.5282 31.6248 17.6604 29.4063 15.7024Z" fill="#206374"/>
<path d="M20.1173 32.3031C19.6271 32.177 19.1274 32.4721 19.0012 32.9623C18.875 33.4525 19.1701 33.9522 19.6604 34.0784C20.5156 34.2985 21.4113 34.4153 22.333 34.4153C23.2547 34.4153 24.1504 34.2985 25.0056 34.0784C25.4958 33.9522 25.791 33.4525 25.6648 32.9623C25.5386 32.4721 25.0389 32.177 24.5487 32.3031C23.8415 32.4852 23.0993 32.5822 22.333 32.5822C21.5667 32.5822 20.8245 32.4852 20.1173 32.3031Z" fill="#206374"/>
</svg>
