<svg width="30" height="30" viewBox="0 0 30 30" fill="none" xmlns="http://www.w3.org/2000/svg">
<path d="M25.3237 3.08472H5.1593C4.67312 3.08472 4.20686 3.27785 3.86308 3.62163C3.5193 3.9654 3.32617 4.43167 3.32617 4.91784V25.0822C3.32617 25.5684 3.5193 26.0347 3.86308 26.3784C4.20686 26.7222 4.67312 26.9153 5.1593 26.9153H25.3237C25.8098 26.9153 26.2761 26.7222 26.6199 26.3784C26.9637 26.0347 27.1568 25.5684 27.1568 25.0822V4.91784C27.1568 4.43167 26.9637 3.9654 26.6199 3.62163C26.2761 3.27785 25.8098 3.08472 25.3237 3.08472ZM17.9912 8.58409H12.4918V4.91784H17.9912V8.58409ZM17.9912 10.4172V14.0835H12.4918V10.4172H17.9912ZM10.6587 10.4172V14.0835H5.1593V10.4172H10.6587ZM10.6587 15.9166V19.5828H5.1593V15.9166H10.6587ZM12.4918 15.9166H17.9912V19.5828H12.4918V15.9166ZM19.8243 14.0835V10.4172H25.3237V14.0835H19.8243ZM5.1593 21.416H10.6587V25.0822H5.1593V21.416ZM19.8243 25.0822V21.416H25.3237V25.0822H19.8243Z" fill="#206374"/>
</svg>
