<svg width="44" height="44" viewBox="0 0 44 44" fill="none" xmlns="http://www.w3.org/2000/svg">
<rect width="44" height="44" rx="22" fill="#F3FDFF"/>
<path d="M20.5659 14.0137L20.0343 11.1736M20.5659 14.0137C22.2417 13.7668 23.9479 14.1813 25.3238 15.1694C26.6996 16.1576 27.6374 17.642 27.9387 19.309L28.3432 21.4708C28.8809 24.3366 31.2554 24.6336 31.5206 26.0671C31.6551 26.7832 31.7895 27.4981 31.1418 27.6204L15.6213 30.5252C14.9748 30.6462 14.8404 29.9289 14.706 29.2127C14.4384 27.7804 16.5464 26.6439 16.0112 23.7781C15.7435 22.3495 16.2776 25.1982 15.6079 21.6163C15.2862 19.9532 15.6238 18.2302 16.5492 16.8115C17.4746 15.3928 18.9154 14.3895 20.5671 14.0137H20.5659ZM11.9551 19.4031C12.1298 17.1092 12.9596 15.1734 14.5043 13.4686M17.738 30.1293C18.0568 31.0375 18.6749 31.8104 19.4909 32.321C20.3068 32.8316 21.2722 33.0496 22.2284 32.9392C23.1846 32.8287 24.0749 32.3964 24.753 31.7133C25.4311 31.0301 25.8568 30.1367 25.9602 29.1797L26.0701 28.5687L17.738 30.1293Z" stroke="#206374" stroke-width="2" stroke-linecap="round" stroke-linejoin="round"/>
</svg>
