<svg width="44" height="44" viewBox="0 0 44 44" fill="none" xmlns="http://www.w3.org/2000/svg">
<rect width="44" height="44" rx="22" fill="#F3FDFF"/>
<path d="M31.6513 26.8883H16.9863C15.8498 26.8883 15.2815 26.8883 14.8147 27.013C14.193 27.1797 13.6262 27.5071 13.1712 27.9623C12.7162 28.4175 12.3891 28.9845 12.2227 29.6062" stroke="#206374" stroke-width="1.5"/>
<path d="M17.111 15.8896H26.8877M17.111 20.1669H23.2214M19.5552 34.2208C16.0991 34.2208 14.3699 34.2208 13.2969 33.1466C12.2227 32.0736 12.2227 30.3444 12.2227 26.8883V17.1116C12.2227 13.6556 12.2227 11.9263 13.2969 10.8534C14.3699 9.77914 16.0991 9.77914 19.5552 9.77914H24.4435C27.8995 9.77914 29.6288 9.77914 30.7018 10.8534C31.776 11.9263 31.776 13.6556 31.776 17.1116M24.4435 34.2208C27.8995 34.2208 29.6288 34.2208 30.7018 33.1466C31.776 32.0736 31.776 30.3444 31.776 26.8883V22" stroke="#206374" stroke-width="1.5" stroke-linecap="round"/>
</svg>
