<svg width="44" height="44" viewBox="0 0 44 44" fill="none" xmlns="http://www.w3.org/2000/svg">
<rect width="44" height="44" rx="22" fill="#F3FDFF"/>
<path d="M18.0112 13.6278C17.5379 13.215 16.9545 12.9491 16.3325 12.8626C15.7105 12.7762 15.0767 12.8729 14.5088 13.141C13.9408 13.4091 13.4634 13.8369 13.1348 14.3722C12.8063 14.9074 12.6408 15.5268 12.6588 16.1545C12.6767 16.7823 12.8773 17.3912 13.2359 17.9068C13.5945 18.4224 14.0957 18.8222 14.678 19.0574C15.2603 19.2926 15.8986 19.353 16.5146 19.2311C17.1307 19.1092 17.6979 18.8104 18.1469 18.3712C18.5619 19.0159 19.1321 19.5462 19.8051 19.9134C20.4781 20.2807 21.2326 20.4733 21.9993 20.4735C22.7658 20.4735 23.5201 20.2813 24.1931 19.9145C24.8661 19.5477 25.4364 19.0179 25.8517 18.3737C26.3007 18.8129 26.8679 19.1117 27.484 19.2336C28.1 19.3554 28.7383 19.2951 29.3206 19.0599C29.9029 18.8247 30.4041 18.4248 30.7627 17.9092C31.1213 17.3937 31.3219 16.7848 31.3398 16.157C31.3578 15.5292 31.1923 14.9098 30.8638 14.3746C30.5352 13.8394 30.0577 13.4115 29.4898 13.1434C28.9219 12.8753 28.2881 12.7786 27.6661 12.8651C27.0441 12.9515 26.4607 13.2174 25.9874 13.6302C25.5878 12.9246 25.008 12.3376 24.3074 11.9292C23.6067 11.5208 22.8103 11.3056 21.9993 11.3056C21.1886 11.3053 20.3923 11.5202 19.6916 11.9281C18.991 12.3361 18.4112 12.9226 18.0112 13.6278ZM19.2493 15.8889C19.2493 15.1596 19.539 14.4601 20.0548 13.9444C20.5705 13.4286 21.27 13.1389 21.9993 13.1389C22.7286 13.1389 23.4281 13.4286 23.9438 13.9444C24.4596 14.4601 24.7493 15.1596 24.7493 15.8889C24.7493 16.6183 24.4596 17.3177 23.9438 17.8334C23.4281 18.3492 22.7286 18.6389 21.9993 18.6389C21.27 18.6389 20.5705 18.3492 20.0548 17.8334C19.539 17.3177 19.2493 16.6183 19.2493 15.8889ZM17.5235 14.8989C17.3603 15.6379 17.3821 16.4058 17.5871 17.1344C17.3555 17.5036 17.01 17.7874 16.6028 17.9428C16.1956 18.0983 15.7488 18.117 15.3301 17.996C14.9113 17.8751 14.5434 17.6211 14.2817 17.2725C14.0201 16.9239 13.8791 16.4995 13.8801 16.0637C13.8803 15.6383 14.0156 15.224 14.2665 14.8805C14.5174 14.537 14.8708 14.282 15.2759 14.1523C15.681 14.0226 16.1169 14.0249 16.5206 14.1589C16.9243 14.2928 17.2751 14.5515 17.5223 14.8977M26.4103 17.1331C26.6159 16.4043 26.6378 15.6358 26.4739 14.8965C26.7238 14.5459 27.0797 14.285 27.4891 14.1521C27.8986 14.0192 28.3399 14.0215 28.748 14.1585C29.1562 14.2954 29.5094 14.56 29.7558 14.913C30.0021 15.266 30.1285 15.6889 30.1163 16.1192C30.1041 16.5495 29.9539 16.9645 29.6879 17.303C29.4219 17.6415 29.0541 17.8855 28.6389 17.9991C28.2237 18.1127 27.7829 18.0899 27.3817 17.9339C26.9804 17.778 26.6399 17.4973 26.4103 17.1331ZM13.3839 19.9186C13.808 19.8061 14.2089 19.9455 14.4851 20.1459C14.5951 20.2254 14.7466 20.3231 14.9312 20.4124C15.0725 20.4856 15.1796 20.611 15.2299 20.762C15.2801 20.913 15.2695 21.0776 15.2003 21.2209C15.131 21.3642 15.0086 21.4748 14.8591 21.5292C14.7095 21.5836 14.5447 21.5776 14.3995 21.5124C14.1782 21.4058 13.9667 21.2798 13.7676 21.1359C13.7478 21.1217 13.726 21.1106 13.7029 21.1029L13.6943 21.1017C13.5295 21.1457 13.3661 21.1946 13.2042 21.2484L12.3657 21.5221C12.0531 21.6239 11.7705 21.8015 11.5431 22.0391C11.3158 22.2767 11.1508 22.5668 11.0629 22.8837L10.717 25.388C10.6485 25.8806 10.9089 26.2497 11.2792 26.3377C11.5522 26.4045 11.8834 26.4697 12.2729 26.5332C12.3521 26.5461 12.4281 26.5744 12.4965 26.6166C12.5648 26.6588 12.6242 26.7141 12.6712 26.7792C12.7181 26.8444 12.7518 26.9181 12.7703 26.9963C12.7888 27.0745 12.7917 27.1555 12.7789 27.2348C12.766 27.3141 12.7377 27.3901 12.6955 27.4584C12.6533 27.5267 12.598 27.5861 12.5329 27.6331C12.4677 27.6801 12.394 27.7138 12.3158 27.7323C12.2376 27.7507 12.1566 27.7536 12.0773 27.7408C11.7146 27.6831 11.3542 27.6117 10.9969 27.5269C9.90297 27.2666 9.36763 26.2191 9.50574 25.2206L9.86263 22.6466L9.86997 22.6136C10.0038 22.0902 10.2679 21.6093 10.6376 21.2154C11.0073 20.8216 11.4706 20.5277 11.9844 20.361L12.8216 20.086C13.009 20.0249 13.1964 19.9691 13.3839 19.9186ZM30.7749 19.9186C30.5861 19.8724 30.3895 19.8688 30.1992 19.9081C30.0089 19.9475 29.8298 20.0287 29.6749 20.1459C29.5649 20.2254 29.4133 20.3231 29.2287 20.4124C29.0875 20.4856 28.9803 20.611 28.93 20.762C28.8798 20.913 28.8904 21.0776 28.9597 21.2209C29.0289 21.3642 29.1513 21.4748 29.3009 21.5292C29.4504 21.5836 29.6153 21.5776 29.7604 21.5124C29.9818 21.4058 30.1932 21.2798 30.3923 21.1359C30.4121 21.1217 30.434 21.1106 30.4571 21.1029L30.4656 21.1017C30.631 21.1449 30.7944 21.1938 30.9557 21.2484L31.7942 21.5221C32.4371 21.7336 32.9247 22.2481 33.0971 22.8837L33.443 25.388C33.5114 25.8806 33.2523 26.2497 32.8807 26.3377C32.5521 26.4153 32.2206 26.4806 31.8871 26.5332C31.8078 26.5461 31.7318 26.5744 31.6635 26.6166C31.5951 26.6588 31.5358 26.7141 31.4888 26.7792C31.4418 26.8444 31.4081 26.9181 31.3896 26.9963C31.3711 27.0745 31.3682 27.1555 31.3811 27.2348C31.3939 27.3141 31.4222 27.3901 31.4645 27.4584C31.5067 27.5267 31.5619 27.5861 31.6271 27.6331C31.6922 27.6801 31.766 27.7138 31.8441 27.7323C31.9223 27.7507 32.0033 27.7536 32.0826 27.7408C32.4998 27.6715 32.86 27.6002 33.1631 27.5269C34.257 27.2666 34.7923 26.2191 34.6542 25.2206L34.2973 22.6466L34.29 22.6136C34.1561 22.0902 33.8921 21.6093 33.5224 21.2154C33.1527 20.8216 32.6893 20.5277 32.1755 20.361L31.3383 20.086C31.1524 20.0252 30.9637 19.9694 30.7749 19.9186Z" fill="#206374"/>
<path d="M24.0205 21.648C24.5045 21.3265 25.2097 21.0735 25.9553 21.285C26.1508 21.3396 26.3452 21.3986 26.5383 21.4622L27.7104 21.8472C28.4393 22.0841 29.0965 22.5015 29.6209 23.0605C30.1452 23.6195 30.5198 24.302 30.7097 25.0445L30.7219 25.0934L31.2218 28.699C31.4186 30.1217 30.6559 31.6238 29.0903 31.9965C27.6603 32.3375 25.3588 32.6944 22.0014 32.6944C18.6403 32.6944 16.3413 32.3375 14.91 31.9978C13.3444 31.6238 12.5817 30.1216 12.7785 28.7002L13.2772 25.0946L13.2894 25.0458C13.4792 24.3028 13.8539 23.62 14.3785 23.0608C14.9031 22.5015 15.5606 22.0841 16.2899 21.8472L17.4633 21.4622C17.6564 21.3995 17.8503 21.34 18.045 21.2838C18.7906 21.0735 19.497 21.3265 19.9798 21.648C20.4198 21.9389 21.1312 22.2884 22.0002 22.2884C22.8692 22.2884 23.5817 21.9389 24.0205 21.648ZM25.4566 23.0486C25.3979 23.0315 25.2476 23.034 25.0349 23.1745C24.4214 23.5815 23.3568 24.1218 22.0002 24.1218C20.6435 24.1218 19.5789 23.5815 18.9666 23.1745C18.7527 23.034 18.6024 23.0315 18.5437 23.0486C18.3726 23.0975 18.2031 23.1493 18.0353 23.2039L16.8619 23.5889C16.4342 23.7279 16.0475 23.9707 15.7363 24.2955C15.4252 24.6202 15.1993 25.017 15.0787 25.4503L14.5947 28.9508C14.503 29.6156 14.8514 30.0984 15.3354 30.2133C16.615 30.5189 18.771 30.8611 22.0002 30.8611C25.2293 30.8611 27.3865 30.5189 28.6649 30.2133C29.1489 30.0984 29.4973 29.6156 29.4056 28.9508L28.9216 25.4503C28.8009 25.0169 28.5748 24.62 28.2634 24.2952C27.9521 23.9704 27.5651 23.7277 27.1372 23.5889L25.9663 23.2039C25.7975 23.1484 25.6276 23.0967 25.4566 23.0486Z" fill="#206374"/>
</svg>
