<svg width="44" height="44" viewBox="0 0 44 44" fill="none" xmlns="http://www.w3.org/2000/svg">
<rect width="44" height="44" rx="22" fill="#F3FDFF"/>
<path fill-rule="evenodd" clip-rule="evenodd" d="M28.4733 15.3665C27.9722 15.3665 27.5567 14.951 27.5567 14.45V12.9541C26.6108 12.9224 25.5 12.9224 24.196 12.9224H21.7518C20.4466 12.9224 19.337 12.9224 18.3911 12.9541V14.45C18.3911 14.951 17.9756 15.3665 17.4745 15.3665C16.9735 15.3665 16.558 14.951 16.558 14.45V13.0861C15.4031 13.2364 14.61 13.5261 14.0527 14.0833C13.317 14.819 13.0481 15.9653 12.9492 17.8107H32.9987C32.8997 15.9653 32.6296 14.819 31.8951 14.0833C31.3378 13.5261 30.5447 13.2364 29.3898 13.0861V14.45C29.3898 14.951 28.9743 15.3665 28.4733 15.3665ZM33.0488 19.6438C33.0553 20.2899 33.0577 21.0028 33.0561 21.7825V23.0045C33.0561 23.5056 33.4716 23.9211 33.9727 23.9211C34.4737 23.9211 34.8892 23.5056 34.8892 23.0045V21.7825C34.8892 16.9186 34.8892 14.4866 33.1905 12.7879C32.2471 11.8445 31.0763 11.4253 29.3898 11.2383V10.1727C29.3898 9.67161 28.9743 9.2561 28.4733 9.2561C27.9722 9.2561 27.5567 9.67161 27.5567 10.1727V11.1198C26.5839 11.0892 25.4731 11.0892 24.196 11.0892H21.7518C20.4735 11.0892 19.3639 11.0892 18.3911 11.1198V10.1727C18.3911 9.67161 17.9756 9.2561 17.4745 9.2561C16.9735 9.2561 16.558 9.67161 16.558 10.1727V11.2383C14.8715 11.4253 13.7007 11.8445 12.7573 12.7879C11.0586 14.4866 11.0586 16.9308 11.0586 21.7825V24.2266C11.0586 29.0905 11.0586 31.5225 12.7573 33.2212C14.456 34.9199 16.8879 34.9199 21.7518 34.9199C22.2529 34.9199 22.6684 34.5043 22.6684 34.0033C22.6684 33.5022 22.2529 33.0867 21.7518 33.0867C17.4012 33.0867 15.2137 33.0867 14.0527 31.9257C12.8917 30.7648 12.8917 28.5772 12.8917 24.2266V21.7825C12.8909 21.0036 12.8929 20.2907 12.8978 19.6438H33.0488ZM29.0843 35.5309C25.8825 35.5309 23.2794 32.9279 23.2794 29.726C23.2794 26.5241 25.8825 23.9211 29.0843 23.9211C32.2862 23.9211 34.8892 26.5241 34.8892 29.726C34.8892 32.9279 32.2862 35.5309 29.0843 35.5309ZM29.0843 25.7542C26.8968 25.7542 25.1126 27.5385 25.1126 29.726C25.1126 31.9135 26.8968 33.6978 29.0843 33.6978C31.2719 33.6978 33.0561 31.9135 33.0561 29.726C33.0561 27.5385 31.2719 25.7542 29.0843 25.7542ZM29.6587 31.5958C29.842 31.7791 30.0742 31.8646 30.3064 31.8646C30.5386 31.8646 30.7708 31.7791 30.9541 31.5958C31.3085 31.2414 31.3085 30.6548 30.9541 30.3004L30.0009 29.3472V27.2818C30.0009 26.7808 29.5854 26.3653 29.0843 26.3653C28.5833 26.3653 28.1678 26.7808 28.1678 27.2818V29.726C28.1678 29.9704 28.2655 30.2026 28.4366 30.3737L29.6587 31.5958Z" fill="#206374"/>
</svg>
