<svg width="45" height="44" viewBox="0 0 45 44" fill="none" xmlns="http://www.w3.org/2000/svg">
<rect x="0.333984" width="44" height="44" rx="22" fill="#F3FDFF"/>
<path d="M31.4984 11.0013H13.1671C12.1547 11.0013 11.334 11.822 11.334 12.8344V31.1657C11.334 32.1781 12.1547 32.9988 13.1671 32.9988H31.4984C32.5108 32.9988 33.3315 32.1781 33.3315 31.1657V12.8344C33.3315 11.822 32.5108 11.0013 31.4984 11.0013Z" stroke="#236A7C" stroke-width="2" stroke-linejoin="round"/>
<path fill-rule="evenodd" clip-rule="evenodd" d="M22.3323 21.0835C22.7374 21.0835 23.126 20.9225 23.4125 20.636C23.699 20.3496 23.8599 19.961 23.8599 19.5559C23.8599 19.1507 23.699 18.7622 23.4125 18.4757C23.126 18.1892 22.7374 18.0283 22.3323 18.0283C21.9271 18.0283 21.5386 18.1892 21.2521 18.4757C20.9656 18.7622 20.8047 19.1507 20.8047 19.5559C20.8047 19.961 20.9656 20.3496 21.2521 20.636C21.5386 20.9225 21.9271 21.0835 22.3323 21.0835ZM22.3323 25.9718C22.7374 25.9718 23.126 25.8109 23.4125 25.5244C23.699 25.2379 23.8599 24.8493 23.8599 24.4442C23.8599 24.0391 23.699 23.6505 23.4125 23.364C23.126 23.0775 22.7374 22.9166 22.3323 22.9166C21.9271 22.9166 21.5386 23.0775 21.2521 23.364C20.9656 23.6505 20.8047 24.0391 20.8047 24.4442C20.8047 24.8493 20.9656 25.2379 21.2521 25.5244C21.5386 25.8109 21.9271 25.9718 22.3323 25.9718Z" fill="#236A7C"/>
<path d="M17.1387 17.7227V26.2773M27.5264 17.7227V26.2773" stroke="#236A7C" stroke-width="2" stroke-linecap="round" stroke-linejoin="round"/>
</svg>
