<svg width="45" height="44" viewBox="0 0 45 44" fill="none" xmlns="http://www.w3.org/2000/svg">
<rect x="0.666016" width="44" height="44" rx="22" fill="#F3FDFF"/>
<g clip-path="url(#clip0_1089_1312)">
<path d="M22.7948 25.6662C22.6611 25.9527 22.5608 26.2486 22.494 26.5542C22.4272 26.8597 22.3651 27.1748 22.3078 27.4994H13.5002V25.6662H22.7948ZM13.5002 31.1656V29.3325H22.2792C22.3269 29.6476 22.3938 29.9579 22.4797 30.2634C22.5656 30.5689 22.6754 30.8696 22.8091 31.1656H13.5002ZM11.6671 34.8319H30.9865L32.8053 36.665H9.83398V7.33499H25.8022L33.6646 15.1974V23.3319C33.3877 23.0836 33.0965 22.8593 32.791 22.6588C32.4855 22.4583 32.1656 22.2816 31.8315 22.1289V16.5006H24.499V9.16812H11.6671V34.8319ZM26.3321 10.4714V14.6675H30.5282L26.3321 10.4714ZM26.6758 22C25.6351 22.3914 24.7424 23.0025 23.9977 23.8331H13.5002V22H26.6758ZM13.5002 14.6675H22.6659V16.5006H13.5002V14.6675ZM29.9984 18.3337V20.1669H13.5002V18.3337H29.9984ZM37.3309 35.7484C37.3309 35.9967 37.2402 36.2115 37.0588 36.3929C36.8774 36.5743 36.6625 36.665 36.4143 36.665C36.1661 36.665 35.9512 36.5743 35.7698 36.3929L31.6023 32.2397C31.23 32.4879 30.829 32.6741 30.3994 32.7982C29.9697 32.9224 29.5305 32.9892 29.0818 32.9987C28.4517 32.9987 27.8597 32.8794 27.306 32.6407C26.7522 32.402 26.2653 32.0774 25.8452 31.6669C25.4251 31.2563 25.0957 30.7694 24.857 30.2061C24.6183 29.6428 24.499 29.0461 24.499 28.4159C24.499 27.7858 24.6183 27.1938 24.857 26.6401C25.0957 26.0863 25.4203 25.6042 25.8309 25.1936C26.2414 24.7831 26.7283 24.4537 27.2916 24.2055C27.8549 23.9572 28.4517 23.8331 29.0818 23.8331C29.7119 23.8331 30.3039 23.9525 30.8576 24.1911C31.4114 24.4298 31.8935 24.7592 32.3041 25.1793C32.7146 25.5994 33.044 26.0863 33.2923 26.6401C33.5405 27.1938 33.6646 27.7858 33.6646 28.4159C33.6646 28.8647 33.6026 29.3038 33.4784 29.7335C33.3543 30.1631 33.1634 30.5641 32.9056 30.9365L37.0588 35.104C37.2402 35.2854 37.3309 35.5002 37.3309 35.7484ZM26.3321 28.4159C26.3321 28.7978 26.4037 29.1559 26.5469 29.49C26.6901 29.8242 26.8859 30.1154 27.1341 30.3636C27.3823 30.6119 27.6735 30.8076 28.0077 30.9508C28.3419 31.094 28.6999 31.1656 29.0818 31.1656C29.4637 31.1656 29.8217 31.094 30.1559 30.9508C30.4901 30.8076 30.7813 30.6119 31.0295 30.3636C31.2777 30.1154 31.4735 29.8242 31.6167 29.49C31.7599 29.1559 31.8315 28.7978 31.8315 28.4159C31.8315 28.034 31.7599 27.676 31.6167 27.3418C31.4735 27.0077 31.2777 26.7165 31.0295 26.4682C30.7813 26.22 30.4901 26.0243 30.1559 25.8811C29.8217 25.7378 29.4637 25.6662 29.0818 25.6662C28.6999 25.6662 28.3419 25.7378 28.0077 25.8811C27.6735 26.0243 27.3823 26.22 27.1341 26.4682C26.8859 26.7165 26.6901 27.0077 26.5469 27.3418C26.4037 27.676 26.3321 28.034 26.3321 28.4159Z" fill="#206374"/>
</g>
<defs>
<clipPath id="clip0_1089_1312">
<rect width="29.33" height="29.33" fill="white" transform="translate(8 7.33499)"/>
</clipPath>
</defs>
</svg>
