<svg width="44" height="44" viewBox="0 0 44 44" fill="none" xmlns="http://www.w3.org/2000/svg">
<rect width="44" height="44" rx="22" fill="#F3FDFF"/>
<path d="M19.5541 15.2798L11.4486 29.3338H27.6596L25.7024 25.9394C26.2444 26.2214 26.83 26.41 27.4347 26.4973L29.2471 29.6393C29.3007 29.7322 29.329 29.8377 29.3289 29.945C29.3289 30.0523 29.3006 30.1577 29.2469 30.2506C29.1932 30.3435 29.116 30.4206 29.023 30.4742C28.9301 30.5278 28.8246 30.556 28.7173 30.5559H10.3903C10.2831 30.5559 10.1777 30.5276 10.0848 30.474C9.99192 30.4204 9.91479 30.3432 9.86116 30.2503C9.80753 30.1574 9.7793 30.0521 9.7793 29.9448C9.7793 29.8376 9.80753 29.7322 9.86116 29.6393L19.025 13.751C19.0786 13.6581 19.1557 13.581 19.2486 13.5274C19.3415 13.4737 19.4469 13.4455 19.5541 13.4455C19.6614 13.4455 19.7667 13.4737 19.8596 13.5274C19.9525 13.581 20.0296 13.6581 20.0833 13.751L23.1507 19.0689C22.9237 19.637 22.7942 20.2394 22.7676 20.8507L19.5541 15.2798Z" fill="#206374"/>
<path fill-rule="evenodd" clip-rule="evenodd" d="M26.5703 24.9985C27.0924 25.2193 27.6538 25.3326 28.2207 25.3315C29.1991 25.3333 30.1476 24.9948 30.9038 24.374L33.3003 26.7699L34.2217 25.8484L31.7751 23.4018C32.2482 22.6723 32.4854 21.8149 32.4544 20.9459C32.4234 20.077 32.1258 19.2386 31.602 18.5446C31.0782 17.8506 30.3535 17.3346 29.5263 17.0667C28.6992 16.7987 27.8096 16.7918 26.9783 17.0468C26.1471 17.3017 25.4144 17.8064 24.8798 18.4921C24.3452 19.1778 24.0345 20.0114 23.9899 20.8797C23.9454 21.7481 24.1691 22.6091 24.6307 23.3459C25.0923 24.0828 25.7695 24.6597 26.5703 24.9985ZM25.2877 21.0951C25.2877 21.873 25.5967 22.619 26.1468 23.1691C26.6968 23.7191 27.4428 24.0281 28.2207 24.0281C28.9986 24.0281 29.7446 23.7191 30.2946 23.1691C30.8447 22.619 31.1537 21.873 31.1537 21.0951C31.1537 20.3172 30.8447 19.5712 30.2946 19.0212C29.7446 18.4711 28.9986 18.1621 28.2207 18.1621C27.4428 18.1621 26.6968 18.4711 26.1468 19.0212C25.5967 19.5712 25.2877 20.3172 25.2877 21.0951Z" fill="#206374"/>
<path d="M18.791 25.6968H20.3186V27.2244H18.791V25.6968ZM19.5548 19.5834C19.1332 19.5834 18.791 19.9256 18.791 20.3472V23.7079C18.791 23.9105 18.8715 24.1048 19.0147 24.248C19.158 24.3912 19.3522 24.4717 19.5548 24.4717C19.7574 24.4717 19.9517 24.3912 20.0949 24.248C20.2381 24.1048 20.3186 23.9105 20.3186 23.7079V20.3472C20.3186 19.9256 19.9764 19.5834 19.5548 19.5834Z" fill="#206374"/>
</svg>
