<svg width="44" height="44" viewBox="0 0 44 44" fill="none" xmlns="http://www.w3.org/2000/svg">
<rect width="44" height="44" rx="22" fill="#F3FDFF"/>
<path d="M33.509 25.0833C32.9679 27.1038 31.9045 28.9462 30.4257 30.4254C28.9468 31.9046 27.1047 32.9684 25.0844 33.51C23.064 34.0515 20.9367 34.0517 18.9163 33.5105C16.8959 32.9693 15.0535 31.9058 13.5744 30.4269C12.0953 28.948 11.0316 27.1058 10.4901 25.0854C9.94868 23.065 9.9486 20.9378 10.4899 18.9174C11.0312 16.897 12.0948 15.0547 13.5738 13.5756C15.0528 12.0966 16.8951 11.033 18.9155 10.4916M33.9141 22C33.9141 18.8399 32.6588 15.8092 30.4242 13.5746C28.1897 11.34 25.159 10.0847 21.9988 10.0847V21.0834C21.9988 21.3265 22.0954 21.5597 22.2673 21.7315C22.4392 21.9034 22.6723 22 22.9154 22H33.9141Z" stroke="#206374" stroke-width="2"/>
</svg>
