<svg width="45" height="44" viewBox="0 0 45 44" fill="none" xmlns="http://www.w3.org/2000/svg">
<rect x="0.333984" width="44" height="44" rx="22" fill="#F3FDFF"/>
<g clip-path="url(#clip0_1089_1229)">
<path d="M10.7226 13.6287V8.25156M10.7226 19.7391V23.4054M17.4441 22.9166V19.2503M17.4441 30.8601V35.7484M25.7543 29.1492V34.0375M28.7484 15.7063L32.4146 11.3068M32.4146 11.3068L36.0809 15.7063M32.4146 11.3068V30.3713M12.8613 18.5171C12.8613 19.2503 12.3724 19.7391 11.6392 19.7391H9.80607C9.07282 19.7391 8.58398 19.2503 8.58398 18.5171V14.8508C8.58398 14.1176 9.07282 13.6287 9.80607 13.6287H11.6392C12.3724 13.6287 12.8613 14.1176 12.8613 14.8508V18.5171ZM19.5827 29.638C19.5827 30.3713 19.0939 30.8601 18.3607 30.8601H16.5275C15.7943 30.8601 15.3054 30.3713 15.3054 29.638V24.1386C15.3054 23.4054 15.7943 22.9166 16.5275 22.9166H18.3607C19.0939 22.9166 19.5827 23.4054 19.5827 24.1386V29.638ZM27.8929 27.9271C27.8929 28.6603 27.4041 29.1492 26.6708 29.1492H24.8377C24.1044 29.1492 23.6156 28.6603 23.6156 27.9271V23.0388C23.6156 22.3055 24.1044 21.8167 24.8377 21.8167H26.6708C27.4041 21.8167 27.8929 22.3055 27.8929 23.0388V27.9271Z" stroke="#206374" stroke-width="1.5" stroke-miterlimit="10" stroke-linecap="round" stroke-linejoin="round"/>
</g>
<defs>
<clipPath id="clip0_1089_1229">
<rect width="29.33" height="29.33" fill="white" transform="translate(7.66797 7.33499)"/>
</clipPath>
</defs>
</svg>
