<svg width="45" height="45" viewBox="0 0 45 45" fill="none" xmlns="http://www.w3.org/2000/svg">
<rect x="0.666016" y="0.5" width="44" height="44" rx="22" fill="#F3FDFF"/>
<path d="M25.1074 18.8337H29.9958M25.1074 23.111H28.7737" stroke="#206374" stroke-width="1.5" stroke-linecap="round" stroke-linejoin="round"/>
<path d="M28.7746 11.5013H16.5538C13.1791 11.5013 10.4434 14.237 10.4434 17.6117V27.3883C10.4434 30.763 13.1791 33.4988 16.5538 33.4988H28.7746C32.1493 33.4988 34.885 30.763 34.885 27.3883V17.6117C34.885 14.237 32.1493 11.5013 28.7746 11.5013Z" stroke="#206374" stroke-width="1.5" stroke-linecap="round" stroke-linejoin="round"/>
<path d="M14.1094 27.3883C15.5857 24.2341 21.0899 24.0276 22.664 27.3883M20.8308 18.8338C20.8308 19.482 20.5733 20.1037 20.115 20.562C19.6566 21.0204 19.0349 21.2779 18.3867 21.2779C17.7384 21.2779 17.1167 21.0204 16.6584 20.562C16.2 20.1037 15.9425 19.482 15.9425 18.8338C15.9425 18.1855 16.2 17.5638 16.6584 17.1055C17.1167 16.6471 17.7384 16.3896 18.3867 16.3896C19.0349 16.3896 19.6566 16.6471 20.115 17.1055C20.5733 17.5638 20.8308 18.1855 20.8308 18.8338Z" stroke="#206374" stroke-width="1.5" stroke-linecap="round" stroke-linejoin="round"/>
</svg>
