<svg width="44" height="44" viewBox="0 0 44 44" fill="none" xmlns="http://www.w3.org/2000/svg">
<rect width="44" height="44" rx="22" fill="#F3FDFF"/>
<g clip-path="url(#clip0_1033_3636)">
<path d="M10.6883 16.7388C10.5136 16.5833 10.286 16.5005 10.0522 16.5073C9.81845 16.5142 9.59612 16.6101 9.43076 16.7755C9.26562 16.9405 9.16969 17.1624 9.16254 17.3957C9.15539 17.6291 9.23755 17.8563 9.39226 18.0312L18.4296 28.2784C18.0593 29.5249 18.3654 30.9364 19.3516 31.9079C19.8097 32.3665 20.3811 32.6957 21.0076 32.8618C21.6342 33.0279 22.2935 33.0251 22.9186 32.8537C23.5438 32.6823 24.1123 32.3484 24.5665 31.8859C25.0207 31.4234 25.3443 30.8489 25.5044 30.2208C25.6645 29.5927 25.6553 28.9334 25.4779 28.3099C25.3005 27.6865 24.9611 27.1212 24.4943 26.6715C24.0275 26.2217 23.4499 25.9037 22.8203 25.7496C22.1907 25.5956 21.5315 25.6111 20.9098 25.7945L10.6993 16.7205L10.6883 16.7388Z" fill="#206374"/>
<path d="M21.999 11.0012C18.6627 11.0012 15.583 12.1158 13.1267 13.9892L14.529 15.2339C16.7075 13.6668 19.3246 12.8265 22.0082 12.8325C29.1023 12.8325 34.84 18.5702 34.84 25.6644C34.84 27.6808 33.1994 29.3306 31.1738 29.3306H29.2857C29.2857 29.9466 29.2087 30.5625 29.0528 31.1638H31.1793L31.4616 31.1564C32.8719 31.0858 34.2011 30.4754 35.1737 29.4516C36.1462 28.4279 36.6877 27.0692 36.686 25.6571C36.686 17.5547 30.1234 10.9921 22.021 10.9921L21.999 11.0012ZM7.84909 21.8167C7.50748 23.0713 7.33426 24.3659 7.33398 25.6662C7.33398 28.7092 9.79037 31.1656 12.8334 31.1656H14.8498C14.7084 30.6203 14.6303 30.0606 14.617 29.4975L14.4703 29.3325H12.8334C10.8169 29.3325 9.16711 27.6918 9.16711 25.6662C9.16711 24.9348 9.2331 24.2181 9.35042 23.5215L7.84909 21.8167Z" fill="#206374"/>
</g>
<defs>
<clipPath id="clip0_1033_3636">
<rect width="29.33" height="29.33" fill="white" transform="translate(7.33398 7.33496)"/>
</clipPath>
</defs>
</svg>
