<svg width="44" height="45" viewBox="0 0 44 45" fill="none" xmlns="http://www.w3.org/2000/svg">
<rect y="0.5" width="44" height="44" rx="22" fill="#F3FDFF"/>
<path fill-rule="evenodd" clip-rule="evenodd" d="M21.9985 9.36261C18.7925 9.36261 16.1936 11.9616 16.1936 15.1675C16.1936 18.3735 18.7925 20.9724 21.9985 20.9724C25.2044 20.9724 27.8034 18.3735 27.8034 15.1675C27.8034 11.9616 25.2044 9.36261 21.9985 9.36261ZM18.0267 15.1675C18.0267 12.974 19.8049 11.1957 21.9985 11.1957C24.192 11.1957 25.9703 12.974 25.9703 15.1675C25.9703 17.3611 24.192 19.1393 21.9985 19.1393C19.8049 19.1393 18.0267 17.3611 18.0267 15.1675Z" fill="#206374"/>
<path fill-rule="evenodd" clip-rule="evenodd" d="M21.9985 22.8055C19.5063 22.8055 17.2049 23.3808 15.4947 24.358C13.8105 25.3205 12.5273 26.7897 12.5273 28.6104C12.5273 30.4312 13.8105 31.9004 15.4947 32.8628C17.2049 33.84 19.5063 34.4153 21.9985 34.4153C24.4907 34.4153 26.7921 33.84 28.5022 32.8628C30.1865 31.9004 31.4696 30.4312 31.4696 28.6104C31.4696 26.7897 30.1865 25.3205 28.5022 24.358C26.7921 23.3808 24.4907 22.8055 21.9985 22.8055ZM14.3605 28.6104C14.3605 27.7314 14.9923 26.7565 16.4042 25.9496C17.7902 25.1576 19.7662 24.6387 21.9985 24.6387C24.2308 24.6387 26.2067 25.1576 27.5928 25.9496C29.0047 26.7565 29.6365 27.7314 29.6365 28.6104C29.6365 29.4894 29.0047 30.4644 27.5928 31.2712C26.2067 32.0632 24.2308 32.5822 21.9985 32.5822C19.7662 32.5822 17.7902 32.0632 16.4042 31.2712C14.9923 30.4644 14.3605 29.4894 14.3605 28.6104Z" fill="#206374"/>
</svg>
