<svg width="45" height="44" viewBox="0 0 45 44" fill="none" xmlns="http://www.w3.org/2000/svg">
<rect x="0.242188" width="44" height="44" rx="22" fill="#F3FDFF"/>
<path d="M22.8524 30.5546V34.2208M20.4082 34.2208H25.2965" stroke="#206374" stroke-width="1.5" stroke-linecap="round" stroke-linejoin="round"/>
<path d="M24.0743 26.8883C19.3498 26.8883 15.5197 23.0583 15.5197 18.3338C15.5197 13.6092 19.3498 9.77917 24.0743 9.77917C28.7989 9.77917 32.6289 13.6092 32.6289 18.3338C32.6289 23.0583 28.7989 26.8883 24.0743 26.8883Z" stroke="#206374" stroke-width="1.5" stroke-linecap="round" stroke-linejoin="round"/>
<path d="M17.9648 12.2233C18.7641 12.2698 19.1772 12.6621 19.8872 13.4124C21.1704 14.7689 22.4536 14.8814 23.309 14.4292C24.591 13.7509 23.5131 12.6535 25.0187 12.0584C26 11.6673 26.1369 10.6102 25.5906 9.77917M32.0188 19.5558C30.1857 19.5558 29.8606 21.0798 28.3526 20.7779C25.2973 20.1669 24.4321 20.85 24.4321 22.3068C24.4321 23.7635 24.4321 23.7635 23.7966 24.856C23.3836 25.5673 23.2381 26.2773 24.0618 26.8883" stroke="#206374" stroke-width="1.5" stroke-linecap="round" stroke-linejoin="round"/>
<path d="M15.5198 9.77917C14.3593 10.9023 13.4366 12.2474 12.8068 13.7345C12.1769 15.2216 11.8527 16.8202 11.8535 18.4352C11.8535 25.1285 17.3248 30.5546 24.0744 30.5546C27.2691 30.5623 30.3399 29.3186 32.6289 27.09" stroke="#206374" stroke-width="1.5" stroke-linecap="round" stroke-linejoin="round"/>
</svg>
