<svg width="44" height="44" viewBox="0 0 44 44" fill="none" xmlns="http://www.w3.org/2000/svg">
<rect width="44" height="44" rx="22" fill="#F3FDFF"/>
<path d="M18.3336 29.9435C18.3336 28.3671 17.3437 26.9971 16.1339 25.9877C14.6863 24.7821 13.6454 23.1597 13.1528 21.3413C12.6603 19.523 12.74 17.5971 13.381 15.8257C14.0221 14.0542 15.1935 12.5234 16.7357 11.4415C18.2779 10.3596 20.116 9.77912 21.9999 9.77917C23.8835 9.77942 25.7212 10.36 27.2631 11.4418C28.805 12.5237 29.9761 14.0543 30.6172 15.8255C31.2582 17.5966 31.338 19.5222 30.8457 21.3403C30.3535 23.1584 29.313 24.7807 27.8659 25.9864C26.656 26.9971 25.6661 28.3671 25.6661 29.9435M18.3336 29.9435H25.6661M18.3336 29.9435V32.3877C18.3336 32.8739 18.5268 33.3402 18.8705 33.6839C19.2143 34.0277 19.6806 34.2208 20.1668 34.2208H23.833C24.3192 34.2208 24.7854 34.0277 25.1292 33.6839C25.473 33.3402 25.6661 32.8739 25.6661 32.3877V29.9435" stroke="#206374" stroke-width="1.5" stroke-linecap="round" stroke-linejoin="round"/>
<path d="M19.5566 17.1116C19.5566 15.8737 20.6504 14.6675 22.0008 14.6675C23.3512 14.6675 24.445 15.6696 24.445 16.9076C24.445 17.3536 24.3032 17.7691 24.0576 18.1186C23.3268 19.1599 22.0008 20.1522 22.0008 21.3889M21.991 24.4441H22.002" stroke="#206374" stroke-width="1.5" stroke-linecap="round" stroke-linejoin="round"/>
</svg>
