<svg width="45" height="45" viewBox="0 0 45 45" fill="none" xmlns="http://www.w3.org/2000/svg">
<rect x="0.333984" y="0.5" width="44" height="44" rx="22" fill="#F3FDFF"/>
<path d="M22.333 18.2227V26.7773M18.6668 24.6387L25.9993 20.3614M18.6668 20.3614L25.9993 24.6387M32.7207 27.1439V17.8561C32.7202 17.4496 32.6134 17.0502 32.4111 16.6976C32.2087 16.345 31.9178 16.0514 31.5671 15.8458L23.4867 11.2018C23.1362 10.9984 22.7382 10.8912 22.333 10.8912C21.9278 10.8912 21.5298 10.9984 21.1794 11.2018L13.099 15.8458C12.7474 16.0504 12.4558 16.3439 12.2534 16.6967C12.0509 17.0495 11.9447 17.4493 11.9453 17.8561V27.1464C11.9461 27.5527 12.053 27.9518 12.2553 28.3041C12.4576 28.6565 12.7484 28.95 13.099 29.1555L21.1794 33.7994C21.5298 34.0029 21.9278 34.11 22.333 34.11C22.7382 34.11 23.1362 34.0029 23.4867 33.7994L31.5671 29.1555C31.9188 28.9507 32.2105 28.6571 32.413 28.304C32.6155 27.951 32.7216 27.5509 32.7207 27.1439Z" stroke="black" stroke-width="1.5" stroke-linecap="round" stroke-linejoin="round"/>
</svg>
